<svg aria-hidden="true" style="position: absolute; width: 10; height: 10; overflow: hidden;" version="1.1" xmlns="http://www.w3.org/2000/svg" xmlns:xlink="http://www.w3.org/1999/xlink">
<defs>
<symbol id="rating" viewBox="0 0 34 32">
<path fill="#ffc531" style="fill: var(--color1, #ffc531); stroke: var(--color1, #ffc531)" stroke="#ffc531" stroke-linejoin="miter" stroke-linecap="butt" stroke-miterlimit="4" stroke-width="2.56" d="M13.227 10.020l3.84-7.277 3.84 7.277c0.34 0.644 0.959 1.093 1.675 1.217l8.108 1.403-5.735 5.9c-0.507 0.522-0.744 1.249-0.64 1.97l1.171 8.144-7.384-3.631c-0.653-0.321-1.418-0.321-2.071 0l-7.384 3.631 1.171-8.144c0.104-0.72-0.133-1.448-0.64-1.97l-5.735-5.9 8.108-1.403c0.717-0.124 1.336-0.574 1.675-1.217z"></path>
</symbol>
<symbol id="camper2" viewBox="0 0 32 32">
<path d="M1.826 6.060h8.686c0.073 0 0.142-0.028 0.194-0.079l0.834-0.814c0.243-0.237 0.565-0.367 0.908-0.367h13.172c0.613 0 1.183 0.297 1.523 0.795l1.579 2.31c0.224 0.328 0.244 0.747 0.054 1.095s-0.56 0.563-0.964 0.563h-6.789v0.669h3.477c0.922 0 1.751 0.534 2.112 1.361l2.036 4.655 1.783 0.696c0.952 0.372 1.568 1.258 1.568 2.259v4.311c0 0.643-0.536 1.166-1.195 1.166h-2.075c-0.241 1.427-1.515 2.52-3.045 2.52s-2.804-1.092-3.045-2.52h-11.342c-0.241 1.427-1.515 2.52-3.045 2.52s-2.804-1.092-3.045-2.52h-4.145c-0.586 0-1.063-0.465-1.063-1.037v-15.803c0-0.982 0.819-1.781 1.826-1.781zM25.685 26.216c1.146 0 2.078-0.909 2.078-2.027s-0.932-2.027-2.078-2.027c-1.146 0-2.078 0.909-2.078 2.027s0.932 2.027 2.078 2.027zM21.024 23.696h1.615c0.004-0.025 0.009-0.049 0.014-0.073 0.003-0.017 0.006-0.033 0.010-0.050 0.008-0.039 0.017-0.077 0.027-0.115 0.002-0.008 0.004-0.016 0.006-0.024 0.012-0.046 0.025-0.091 0.040-0.136 0.004-0.013 0.009-0.026 0.013-0.039 0.010-0.032 0.021-0.063 0.033-0.094 0.006-0.017 0.013-0.033 0.020-0.050 0.010-0.027 0.021-0.054 0.033-0.081 0.007-0.018 0.015-0.035 0.023-0.052 0.011-0.026 0.023-0.050 0.035-0.076 0.009-0.018 0.017-0.035 0.027-0.053 0.012-0.024 0.025-0.048 0.038-0.072 0.009-0.017 0.019-0.035 0.029-0.052 0.013-0.024 0.027-0.047 0.042-0.070 0.010-0.017 0.020-0.033 0.030-0.050 0.015-0.024 0.031-0.047 0.046-0.070 0.010-0.015 0.021-0.031 0.031-0.046 0.017-0.025 0.036-0.049 0.054-0.074 0.009-0.013 0.019-0.026 0.028-0.039 0.025-0.032 0.050-0.063 0.076-0.094 0.004-0.005 0.007-0.009 0.011-0.014 0.030-0.035 0.061-0.070 0.092-0.104 0.010-0.011 0.020-0.020 0.030-0.031 0.022-0.023 0.044-0.046 0.067-0.069 0.013-0.013 0.026-0.025 0.039-0.037 0.021-0.020 0.042-0.039 0.063-0.059 0.014-0.013 0.029-0.025 0.043-0.038 0.021-0.018 0.042-0.036 0.063-0.054l0.046-0.037c0.021-0.017 0.043-0.034 0.065-0.050 0.016-0.012 0.032-0.024 0.048-0.035 0.022-0.016 0.045-0.032 0.068-0.047 0.016-0.011 0.032-0.022 0.048-0.032 0.024-0.016 0.048-0.031 0.073-0.046 0.016-0.009 0.031-0.019 0.048-0.029 0.027-0.016 0.054-0.031 0.082-0.046 0.014-0.008 0.028-0.016 0.042-0.023 0.039-0.020 0.078-0.040 0.118-0.059 0.003-0.001 0.006-0.003 0.009-0.004 0.043-0.020 0.086-0.039 0.13-0.057 0.014-0.006 0.029-0.011 0.043-0.017 0.030-0.012 0.060-0.024 0.091-0.035 0.017-0.006 0.035-0.012 0.052-0.018 0.028-0.009 0.056-0.019 0.084-0.028 0.019-0.006 0.038-0.011 0.057-0.017 0.027-0.008 0.055-0.016 0.082-0.023 0.020-0.005 0.040-0.010 0.060-0.015 0.027-0.007 0.055-0.013 0.083-0.018 0.020-0.004 0.040-0.009 0.061-0.013 0.028-0.005 0.057-0.010 0.085-0.015 0.020-0.004 0.040-0.007 0.060-0.009 0.029-0.004 0.059-0.008 0.090-0.011 0.019-0.002 0.038-0.005 0.058-0.006 0.033-0.003 0.067-0.006 0.1-0.007 0.017-0.001 0.033-0.003 0.049-0.003 0.050-0.003 0.1-0.004 0.151-0.004s0.101 0.001 0.151 0.004c0.017 0 0.033 0.002 0.049 0.003 0.034 0.002 0.067 0.004 0.1 0.007 0.019 0.002 0.039 0.004 0.058 0.006 0.030 0.004 0.060 0.007 0.090 0.011 0.021 0.003 0.040 0.006 0.061 0.009 0.029 0.004 0.057 0.009 0.085 0.015 0.021 0.004 0.041 0.008 0.061 0.013 0.028 0.006 0.055 0.012 0.083 0.018 0.020 0.005 0.040 0.010 0.060 0.015 0.027 0.007 0.055 0.015 0.082 0.023 0.019 0.006 0.038 0.011 0.057 0.017 0.028 0.009 0.056 0.018 0.084 0.028 0.017 0.006 0.035 0.012 0.052 0.018 0.031 0.011 0.061 0.023 0.091 0.035 0.014 0.006 0.029 0.011 0.043 0.017 0.044 0.018 0.087 0.037 0.13 0.057 0.003 0.002 0.006 0.003 0.009 0.004 0.040 0.019 0.079 0.039 0.118 0.059 0.014 0.007 0.027 0.015 0.042 0.023 0.027 0.015 0.055 0.030 0.082 0.046 0.016 0.009 0.032 0.019 0.048 0.029 0.024 0.015 0.049 0.030 0.073 0.046 0.016 0.011 0.032 0.022 0.048 0.032 0.023 0.016 0.046 0.031 0.068 0.047 0.016 0.011 0.032 0.023 0.048 0.035 0.022 0.016 0.044 0.033 0.065 0.050l0.046 0.037c0.021 0.018 0.042 0.035 0.063 0.054 0.015 0.013 0.029 0.025 0.043 0.038 0.021 0.019 0.042 0.039 0.063 0.059 0.013 0.012 0.026 0.024 0.039 0.037 0.023 0.023 0.045 0.046 0.067 0.069 0.010 0.010 0.020 0.020 0.030 0.031 0.031 0.034 0.062 0.068 0.092 0.104 0.004 0.005 0.008 0.009 0.011 0.014 0.026 0.031 0.051 0.062 0.076 0.094 0.010 0.013 0.019 0.026 0.028 0.039 0.019 0.024 0.037 0.049 0.054 0.074 0.010 0.015 0.021 0.030 0.031 0.046 0.016 0.024 0.031 0.047 0.046 0.070 0.010 0.017 0.020 0.033 0.030 0.050 0.014 0.023 0.028 0.047 0.042 0.070 0.010 0.017 0.019 0.035 0.029 0.052 0.013 0.024 0.026 0.048 0.038 0.072 0.009 0.018 0.018 0.035 0.027 0.053 0.012 0.025 0.023 0.050 0.035 0.076 0.008 0.017 0.016 0.035 0.023 0.052 0.012 0.027 0.022 0.054 0.033 0.081 0.007 0.016 0.013 0.033 0.020 0.050 0.011 0.031 0.022 0.063 0.033 0.094 0.004 0.013 0.009 0.026 0.013 0.039 0.014 0.045 0.027 0.090 0.040 0.136 0.002 0.008 0.004 0.016 0.006 0.024 0.010 0.038 0.019 0.076 0.027 0.115 0.004 0.016 0.006 0.033 0.010 0.050 0.005 0.024 0.010 0.048 0.014 0.073h2.074c0.103 0 0.186-0.082 0.186-0.182v-2.062h-0.787v-0.984h0.787v-1.264c0-0.596-0.366-1.124-0.933-1.345l-1.888-0.737h-7.146v6.574zM21.024 16.138h6.48l-1.818-4.158c-0.203-0.464-0.668-0.763-1.185-0.763h-3.477v4.921zM8.252 26.216c1.146 0 2.078-0.909 2.078-2.027s-0.932-2.027-2.078-2.027c-0.036 0-0.071 0.001-0.107 0.003-0.955 0.047-1.742 0.727-1.929 1.616-0.007 0.033-0.013 0.067-0.019 0.1-0.011 0.067-0.017 0.135-0.021 0.204-0.002 0.035-0.003 0.069-0.003 0.104 0 1.118 0.932 2.027 2.078 2.027zM1.009 20.468h0.787v0.984h-0.787v2.192c0 0.029 0.024 0.052 0.054 0.052h4.144c0.004-0.024 0.009-0.048 0.014-0.072 0.003-0.017 0.006-0.034 0.010-0.051 0.008-0.038 0.017-0.075 0.027-0.112 0.002-0.009 0.004-0.018 0.006-0.026 0.012-0.046 0.025-0.090 0.040-0.135 0.004-0.014 0.009-0.028 0.014-0.041 0.011-0.031 0.021-0.062 0.032-0.093 0.006-0.017 0.013-0.034 0.020-0.051 0.011-0.027 0.021-0.054 0.032-0.080 0.008-0.018 0.016-0.036 0.024-0.054 0.011-0.025 0.023-0.050 0.035-0.074 0.008-0.018 0.018-0.036 0.027-0.054 0.012-0.024 0.025-0.048 0.038-0.072 0.010-0.017 0.019-0.035 0.029-0.052 0.014-0.024 0.027-0.047 0.042-0.070 0.010-0.017 0.020-0.033 0.031-0.050 0.015-0.024 0.030-0.047 0.046-0.070 0.010-0.016 0.021-0.032 0.031-0.046 0.017-0.025 0.035-0.049 0.053-0.073 0.010-0.013 0.019-0.027 0.029-0.040 0.024-0.031 0.049-0.062 0.074-0.092 0.004-0.006 0.008-0.011 0.013-0.016 0.030-0.035 0.061-0.070 0.092-0.104 0.010-0.011 0.020-0.021 0.030-0.032 0.022-0.023 0.044-0.046 0.067-0.068 0.013-0.013 0.026-0.025 0.040-0.037 0.021-0.020 0.041-0.039 0.063-0.058 0.014-0.013 0.029-0.025 0.044-0.038 0.021-0.018 0.042-0.035 0.063-0.053 0.015-0.013 0.031-0.025 0.046-0.037 0.021-0.017 0.043-0.033 0.065-0.050 0.016-0.012 0.032-0.024 0.048-0.035 0.022-0.016 0.045-0.032 0.067-0.047 0.017-0.011 0.033-0.022 0.049-0.033 0.024-0.016 0.048-0.031 0.072-0.045 0.016-0.010 0.032-0.020 0.048-0.029 0.027-0.016 0.054-0.031 0.081-0.046 0.014-0.008 0.028-0.016 0.042-0.023 0.038-0.020 0.077-0.040 0.117-0.058 0.003-0.002 0.006-0.004 0.010-0.005 0.043-0.020 0.086-0.039 0.13-0.057 0.014-0.006 0.029-0.011 0.043-0.017 0.030-0.012 0.060-0.024 0.091-0.035 0.017-0.006 0.035-0.012 0.053-0.018 0.027-0.009 0.055-0.019 0.084-0.028 0.019-0.006 0.038-0.011 0.057-0.017 0.027-0.008 0.055-0.016 0.082-0.023 0.020-0.005 0.040-0.010 0.060-0.015 0.027-0.007 0.055-0.013 0.083-0.018 0.020-0.004 0.040-0.009 0.061-0.013 0.028-0.005 0.056-0.010 0.085-0.015 0.020-0.004 0.040-0.007 0.061-0.009 0.029-0.004 0.059-0.008 0.090-0.011 0.019-0.002 0.038-0.005 0.058-0.006 0.033-0.003 0.067-0.006 0.1-0.007 0.016-0.001 0.033-0.003 0.049-0.003 0.050-0.003 0.1-0.004 0.151-0.004s0.101 0.001 0.151 0.004c0.017 0 0.033 0.002 0.049 0.003 0.033 0.002 0.067 0.004 0.1 0.007 0.019 0.002 0.039 0.004 0.058 0.006 0.030 0.004 0.060 0.007 0.090 0.011 0.021 0.003 0.040 0.006 0.060 0.009 0.029 0.004 0.057 0.009 0.085 0.015 0.021 0.004 0.041 0.008 0.061 0.013 0.028 0.006 0.055 0.012 0.083 0.018 0.020 0.005 0.040 0.010 0.060 0.015 0.027 0.007 0.055 0.015 0.082 0.023 0.019 0.006 0.038 0.011 0.057 0.017 0.028 0.009 0.056 0.018 0.084 0.028 0.018 0.006 0.036 0.012 0.053 0.018 0.031 0.011 0.061 0.023 0.091 0.035 0.014 0.006 0.029 0.011 0.043 0.017 0.044 0.018 0.087 0.037 0.13 0.057 0.004 0.002 0.007 0.003 0.010 0.005 0.040 0.019 0.078 0.038 0.117 0.058 0.014 0.007 0.028 0.015 0.042 0.023 0.027 0.015 0.054 0.030 0.081 0.046 0.016 0.009 0.032 0.019 0.048 0.029 0.024 0.015 0.048 0.030 0.072 0.045 0.016 0.011 0.032 0.022 0.049 0.033 0.023 0.015 0.045 0.031 0.067 0.047 0.016 0.011 0.032 0.023 0.048 0.035 0.022 0.016 0.044 0.033 0.065 0.050 0.016 0.012 0.031 0.025 0.046 0.037 0.021 0.017 0.042 0.035 0.063 0.053 0.015 0.013 0.029 0.025 0.044 0.038 0.021 0.019 0.042 0.039 0.063 0.059 0.013 0.012 0.026 0.024 0.039 0.037 0.023 0.022 0.045 0.046 0.067 0.069 0.010 0.010 0.020 0.020 0.030 0.031 0.031 0.034 0.062 0.068 0.092 0.104 0.004 0.005 0.008 0.010 0.012 0.015 0.025 0.031 0.051 0.062 0.075 0.094 0.010 0.013 0.019 0.026 0.029 0.039 0.018 0.024 0.036 0.049 0.054 0.074 0.010 0.015 0.021 0.031 0.031 0.046 0.016 0.023 0.031 0.046 0.046 0.070 0.010 0.017 0.021 0.033 0.031 0.050 0.014 0.023 0.028 0.047 0.042 0.070 0.010 0.017 0.019 0.035 0.029 0.052 0.013 0.024 0.026 0.048 0.038 0.072 0.009 0.018 0.017 0.035 0.026 0.053 0.012 0.025 0.023 0.050 0.035 0.076 0.008 0.017 0.016 0.035 0.023 0.052 0.012 0.027 0.022 0.054 0.033 0.081 0.006 0.016 0.013 0.033 0.019 0.050 0.012 0.031 0.022 0.063 0.033 0.095 0.004 0.013 0.009 0.026 0.013 0.039 0.014 0.045 0.027 0.091 0.040 0.136 0.002 0.007 0.003 0.015 0.005 0.022 0.010 0.039 0.019 0.078 0.028 0.117 0.004 0.016 0.006 0.032 0.009 0.048 0.005 0.025 0.010 0.049 0.015 0.074h8.717v-14.625c0-0.272 0.226-0.492 0.504-0.492h7.293c0.012 0 0.051 0 0.075-0.044s0.003-0.074-0.004-0.084l-1.578-2.31c-0.153-0.224-0.408-0.357-0.684-0.357h-13.172c-0.073 0-0.142 0.028-0.195 0.079l-0.834 0.814c-0.242 0.237-0.565 0.367-0.908 0.367h-8.686c-0.45 0-0.817 0.357-0.817 0.797v12.627z"></path>
<path d="M14.081 9.838h3.191c0.644 0 1.169 0.511 1.169 1.14v10.532c0 0.272-0.226 0.492-0.504 0.492h-4.52c-0.278 0-0.504-0.22-0.504-0.492v-10.532c-0-0.629 0.524-1.14 1.169-1.14zM13.921 21.019h3.511v-5.787h-3.511v5.787zM13.921 14.248h3.511v-3.269c0-0.086-0.072-0.156-0.16-0.156h-3.191c-0.088 0-0.16 0.070-0.16 0.156l0 3.269z"></path>
</symbol>
<symbol id="camper3" viewBox="0 0 32 32">
<path d="M1.826 6.060h8.686c0.073 0 0.142-0.028 0.194-0.079l0.834-0.814c0.243-0.237 0.565-0.367 0.908-0.367h13.172c0.613 0 1.183 0.297 1.523 0.795l1.579 2.31c0.224 0.328 0.244 0.747 0.054 1.095s-0.56 0.563-0.964 0.563h-6.789v0.669h3.477c0.922 0 1.751 0.534 2.112 1.361l2.036 4.655 1.783 0.696c0.952 0.372 1.568 1.258 1.568 2.259v4.311c0 0.643-0.536 1.166-1.195 1.166h-2.075c-0.241 1.427-1.515 2.52-3.045 2.52s-2.804-1.092-3.045-2.52h-11.342c-0.241 1.427-1.515 2.52-3.045 2.52s-2.804-1.092-3.045-2.52h-4.145c-0.586 0-1.063-0.465-1.063-1.037v-15.803c0-0.982 0.819-1.781 1.826-1.781zM25.685 26.216c1.146 0 2.078-0.909 2.078-2.027s-0.932-2.027-2.078-2.027c-1.146 0-2.078 0.909-2.078 2.027s0.932 2.027 2.078 2.027zM21.024 23.696h1.615c0.004-0.025 0.009-0.049 0.014-0.073 0.003-0.017 0.006-0.033 0.010-0.050 0.008-0.039 0.017-0.077 0.027-0.115 0.002-0.008 0.004-0.016 0.006-0.024 0.012-0.046 0.025-0.091 0.040-0.136 0.004-0.013 0.009-0.026 0.013-0.039 0.010-0.032 0.021-0.063 0.033-0.094 0.006-0.017 0.013-0.033 0.020-0.050 0.010-0.027 0.021-0.054 0.033-0.081 0.007-0.018 0.015-0.035 0.023-0.052 0.011-0.026 0.023-0.050 0.035-0.076 0.009-0.018 0.017-0.035 0.027-0.053 0.012-0.024 0.025-0.048 0.038-0.072 0.009-0.017 0.019-0.035 0.029-0.052 0.013-0.024 0.027-0.047 0.042-0.070 0.010-0.017 0.020-0.033 0.030-0.050 0.015-0.024 0.031-0.047 0.046-0.070 0.010-0.015 0.021-0.031 0.031-0.046 0.017-0.025 0.036-0.049 0.054-0.074 0.009-0.013 0.019-0.026 0.028-0.039 0.025-0.032 0.050-0.063 0.076-0.094 0.004-0.005 0.007-0.009 0.011-0.014 0.030-0.035 0.061-0.070 0.092-0.104 0.010-0.011 0.020-0.020 0.030-0.031 0.022-0.023 0.044-0.046 0.067-0.069 0.013-0.013 0.026-0.025 0.039-0.037 0.021-0.020 0.042-0.039 0.063-0.059 0.014-0.013 0.029-0.025 0.043-0.038 0.021-0.018 0.042-0.036 0.063-0.054l0.046-0.037c0.021-0.017 0.043-0.034 0.065-0.050 0.016-0.012 0.032-0.024 0.048-0.035 0.022-0.016 0.045-0.032 0.068-0.047 0.016-0.011 0.032-0.022 0.048-0.032 0.024-0.016 0.048-0.031 0.073-0.046 0.016-0.009 0.031-0.019 0.048-0.029 0.027-0.016 0.054-0.031 0.082-0.046 0.014-0.008 0.028-0.016 0.042-0.023 0.039-0.020 0.078-0.040 0.118-0.059 0.003-0.001 0.006-0.003 0.009-0.004 0.043-0.020 0.086-0.039 0.13-0.057 0.014-0.006 0.029-0.011 0.043-0.017 0.030-0.012 0.060-0.024 0.091-0.035 0.017-0.006 0.035-0.012 0.052-0.018 0.028-0.009 0.056-0.019 0.084-0.028 0.019-0.006 0.038-0.011 0.057-0.017 0.027-0.008 0.055-0.016 0.082-0.023 0.020-0.005 0.040-0.010 0.060-0.015 0.027-0.007 0.055-0.013 0.083-0.018 0.020-0.004 0.040-0.009 0.061-0.013 0.028-0.005 0.057-0.010 0.085-0.015 0.020-0.004 0.040-0.007 0.060-0.009 0.029-0.004 0.059-0.008 0.090-0.011 0.019-0.002 0.038-0.005 0.058-0.006 0.033-0.003 0.067-0.006 0.1-0.007 0.017-0.001 0.033-0.003 0.049-0.003 0.050-0.003 0.1-0.004 0.151-0.004s0.101 0.001 0.151 0.004c0.017 0 0.033 0.002 0.049 0.003 0.034 0.002 0.067 0.004 0.1 0.007 0.019 0.002 0.039 0.004 0.058 0.006 0.030 0.004 0.060 0.007 0.090 0.011 0.021 0.003 0.040 0.006 0.061 0.009 0.029 0.004 0.057 0.009 0.085 0.015 0.021 0.004 0.041 0.008 0.061 0.013 0.028 0.006 0.055 0.012 0.083 0.018 0.020 0.005 0.040 0.010 0.060 0.015 0.027 0.007 0.055 0.015 0.082 0.023 0.019 0.006 0.038 0.011 0.057 0.017 0.028 0.009 0.056 0.018 0.084 0.028 0.017 0.006 0.035 0.012 0.052 0.018 0.031 0.011 0.061 0.023 0.091 0.035 0.014 0.006 0.029 0.011 0.043 0.017 0.044 0.018 0.087 0.037 0.13 0.057 0.003 0.002 0.006 0.003 0.009 0.004 0.040 0.019 0.079 0.039 0.118 0.059 0.014 0.007 0.027 0.015 0.042 0.023 0.027 0.015 0.055 0.030 0.082 0.046 0.016 0.009 0.032 0.019 0.048 0.029 0.024 0.015 0.049 0.030 0.073 0.046 0.016 0.011 0.032 0.022 0.048 0.032 0.023 0.016 0.046 0.031 0.068 0.047 0.016 0.011 0.032 0.023 0.048 0.035 0.022 0.016 0.044 0.033 0.065 0.050l0.046 0.037c0.021 0.018 0.042 0.035 0.063 0.054 0.015 0.013 0.029 0.025 0.043 0.038 0.021 0.019 0.042 0.039 0.063 0.059 0.013 0.012 0.026 0.024 0.039 0.037 0.023 0.023 0.045 0.046 0.067 0.069 0.010 0.010 0.020 0.020 0.030 0.031 0.031 0.034 0.062 0.068 0.092 0.104 0.004 0.005 0.008 0.009 0.011 0.014 0.026 0.031 0.051 0.062 0.076 0.094 0.010 0.013 0.019 0.026 0.028 0.039 0.019 0.024 0.037 0.049 0.054 0.074 0.010 0.015 0.021 0.030 0.031 0.046 0.016 0.024 0.031 0.047 0.046 0.070 0.010 0.017 0.020 0.033 0.030 0.050 0.014 0.023 0.028 0.047 0.042 0.070 0.010 0.017 0.019 0.035 0.029 0.052 0.013 0.024 0.026 0.048 0.038 0.072 0.009 0.018 0.018 0.035 0.027 0.053 0.012 0.025 0.023 0.050 0.035 0.076 0.008 0.017 0.016 0.035 0.023 0.052 0.012 0.027 0.022 0.054 0.033 0.081 0.007 0.016 0.013 0.033 0.020 0.050 0.011 0.031 0.022 0.063 0.033 0.094 0.004 0.013 0.009 0.026 0.013 0.039 0.014 0.045 0.027 0.090 0.040 0.136 0.002 0.008 0.004 0.016 0.006 0.024 0.010 0.038 0.019 0.076 0.027 0.115 0.004 0.016 0.006 0.033 0.010 0.050 0.005 0.024 0.010 0.048 0.014 0.073h2.074c0.103 0 0.186-0.082 0.186-0.182v-2.062h-0.787v-0.984h0.787v-1.264c0-0.596-0.366-1.124-0.933-1.345l-1.888-0.737h-7.146v6.574zM21.024 16.138h6.48l-1.818-4.158c-0.203-0.464-0.668-0.763-1.185-0.763h-3.477v4.921zM8.252 26.216c1.146 0 2.078-0.909 2.078-2.027s-0.932-2.027-2.078-2.027c-0.036 0-0.071 0.001-0.107 0.003-0.955 0.047-1.742 0.727-1.929 1.616-0.007 0.033-0.013 0.067-0.019 0.1-0.011 0.067-0.017 0.135-0.021 0.204-0.002 0.035-0.003 0.069-0.003 0.104 0 1.118 0.932 2.027 2.078 2.027zM1.009 20.468h0.787v0.984h-0.787v2.192c0 0.029 0.024 0.052 0.054 0.052h4.144c0.004-0.024 0.009-0.048 0.014-0.072 0.003-0.017 0.006-0.034 0.010-0.051 0.008-0.038 0.017-0.075 0.027-0.112 0.002-0.009 0.004-0.018 0.006-0.026 0.012-0.046 0.025-0.090 0.040-0.135 0.004-0.014 0.009-0.028 0.014-0.041 0.011-0.031 0.021-0.062 0.032-0.093 0.006-0.017 0.013-0.034 0.020-0.051 0.011-0.027 0.021-0.054 0.032-0.080 0.008-0.018 0.016-0.036 0.024-0.054 0.011-0.025 0.023-0.050 0.035-0.074 0.008-0.018 0.018-0.036 0.027-0.054 0.012-0.024 0.025-0.048 0.038-0.072 0.010-0.017 0.019-0.035 0.029-0.052 0.014-0.024 0.027-0.047 0.042-0.070 0.010-0.017 0.020-0.033 0.031-0.050 0.015-0.024 0.030-0.047 0.046-0.070 0.010-0.016 0.021-0.032 0.031-0.046 0.017-0.025 0.035-0.049 0.053-0.073 0.010-0.013 0.019-0.027 0.029-0.040 0.024-0.031 0.049-0.062 0.074-0.092 0.004-0.006 0.008-0.011 0.013-0.016 0.030-0.035 0.061-0.070 0.092-0.104 0.010-0.011 0.020-0.021 0.030-0.032 0.022-0.023 0.044-0.046 0.067-0.068 0.013-0.013 0.026-0.025 0.040-0.037 0.021-0.020 0.041-0.039 0.063-0.058 0.014-0.013 0.029-0.025 0.044-0.038 0.021-0.018 0.042-0.035 0.063-0.053 0.015-0.013 0.031-0.025 0.046-0.037 0.021-0.017 0.043-0.033 0.065-0.050 0.016-0.012 0.032-0.024 0.048-0.035 0.022-0.016 0.045-0.032 0.067-0.047 0.017-0.011 0.033-0.022 0.049-0.033 0.024-0.016 0.048-0.031 0.072-0.045 0.016-0.010 0.032-0.020 0.048-0.029 0.027-0.016 0.054-0.031 0.081-0.046 0.014-0.008 0.028-0.016 0.042-0.023 0.038-0.020 0.077-0.040 0.117-0.058 0.003-0.002 0.006-0.004 0.010-0.005 0.043-0.020 0.086-0.039 0.13-0.057 0.014-0.006 0.029-0.011 0.043-0.017 0.030-0.012 0.060-0.024 0.091-0.035 0.017-0.006 0.035-0.012 0.053-0.018 0.027-0.009 0.055-0.019 0.084-0.028 0.019-0.006 0.038-0.011 0.057-0.017 0.027-0.008 0.055-0.016 0.082-0.023 0.020-0.005 0.040-0.010 0.060-0.015 0.027-0.007 0.055-0.013 0.083-0.018 0.020-0.004 0.040-0.009 0.061-0.013 0.028-0.005 0.056-0.010 0.085-0.015 0.020-0.004 0.040-0.007 0.061-0.009 0.029-0.004 0.059-0.008 0.090-0.011 0.019-0.002 0.038-0.005 0.058-0.006 0.033-0.003 0.067-0.006 0.1-0.007 0.016-0.001 0.033-0.003 0.049-0.003 0.050-0.003 0.1-0.004 0.151-0.004s0.101 0.001 0.151 0.004c0.017 0 0.033 0.002 0.049 0.003 0.033 0.002 0.067 0.004 0.1 0.007 0.019 0.002 0.039 0.004 0.058 0.006 0.030 0.004 0.060 0.007 0.090 0.011 0.021 0.003 0.040 0.006 0.060 0.009 0.029 0.004 0.057 0.009 0.085 0.015 0.021 0.004 0.041 0.008 0.061 0.013 0.028 0.006 0.055 0.012 0.083 0.018 0.020 0.005 0.040 0.010 0.060 0.015 0.027 0.007 0.055 0.015 0.082 0.023 0.019 0.006 0.038 0.011 0.057 0.017 0.028 0.009 0.056 0.018 0.084 0.028 0.018 0.006 0.036 0.012 0.053 0.018 0.031 0.011 0.061 0.023 0.091 0.035 0.014 0.006 0.029 0.011 0.043 0.017 0.044 0.018 0.087 0.037 0.13 0.057 0.004 0.002 0.007 0.003 0.010 0.005 0.040 0.019 0.078 0.038 0.117 0.058 0.014 0.007 0.028 0.015 0.042 0.023 0.027 0.015 0.054 0.030 0.081 0.046 0.016 0.009 0.032 0.019 0.048 0.029 0.024 0.015 0.048 0.030 0.072 0.045 0.016 0.011 0.032 0.022 0.049 0.033 0.023 0.015 0.045 0.031 0.067 0.047 0.016 0.011 0.032 0.023 0.048 0.035 0.022 0.016 0.044 0.033 0.065 0.050 0.016 0.012 0.031 0.025 0.046 0.037 0.021 0.017 0.042 0.035 0.063 0.053 0.015 0.013 0.029 0.025 0.044 0.038 0.021 0.019 0.042 0.039 0.063 0.059 0.013 0.012 0.026 0.024 0.039 0.037 0.023 0.022 0.045 0.046 0.067 0.069 0.010 0.010 0.020 0.020 0.030 0.031 0.031 0.034 0.062 0.068 0.092 0.104 0.004 0.005 0.008 0.010 0.012 0.015 0.025 0.031 0.051 0.062 0.075 0.094 0.010 0.013 0.019 0.026 0.029 0.039 0.018 0.024 0.036 0.049 0.054 0.074 0.010 0.015 0.021 0.031 0.031 0.046 0.016 0.023 0.031 0.046 0.046 0.070 0.010 0.017 0.021 0.033 0.031 0.050 0.014 0.023 0.028 0.047 0.042 0.070 0.010 0.017 0.019 0.035 0.029 0.052 0.013 0.024 0.026 0.048 0.038 0.072 0.009 0.018 0.017 0.035 0.026 0.053 0.012 0.025 0.023 0.050 0.035 0.076 0.008 0.017 0.016 0.035 0.023 0.052 0.012 0.027 0.022 0.054 0.033 0.081 0.006 0.016 0.013 0.033 0.019 0.050 0.012 0.031 0.022 0.063 0.033 0.095 0.004 0.013 0.009 0.026 0.013 0.039 0.014 0.045 0.027 0.091 0.040 0.136 0.002 0.007 0.003 0.015 0.005 0.022 0.010 0.039 0.019 0.078 0.028 0.117 0.004 0.016 0.006 0.032 0.009 0.048 0.005 0.025 0.010 0.049 0.015 0.074h8.717v-14.625c0-0.272 0.226-0.492 0.504-0.492h7.293c0.012 0 0.051 0 0.075-0.044s0.003-0.074-0.004-0.084l-1.578-2.31c-0.153-0.224-0.408-0.357-0.684-0.357h-13.172c-0.073 0-0.142 0.028-0.195 0.079l-0.834 0.814c-0.242 0.237-0.565 0.367-0.908 0.367h-8.686c-0.45 0-0.817 0.357-0.817 0.797v12.627z"></path>
<path d="M3.875 9.838h6.17c0.713 0 1.293 0.566 1.293 1.262v2.87c0 0.696-0.58 1.262-1.293 1.262h-6.17c-0.713 0-1.293-0.566-1.293-1.262v-2.87c0-0.696 0.581-1.262 1.294-1.262zM3.591 13.97c0 0.153 0.127 0.278 0.284 0.278h6.17c0.157 0 0.284-0.124 0.284-0.278v-2.87c0-0.153-0.128-0.278-0.284-0.278h-6.17c-0.157 0-0.284 0.124-0.284 0.278l0 2.87z"></path>
</symbol>
<symbol id="calendar" viewBox="0 0 32 32">
<path stroke-linejoin="round" stroke-linecap="round" stroke-miterlimit="4" stroke-width="2.4" d="M25.333 5.333h-18.667c-1.473 0-2.667 1.194-2.667 2.667v18.667c0 1.473 1.194 2.667 2.667 2.667h18.667c1.473 0 2.667-1.194 2.667-2.667v-18.667c0-1.473-1.194-2.667-2.667-2.667z"></path>
<path stroke-linejoin="round" stroke-linecap="round" stroke-miterlimit="4" stroke-width="2.4" d="M21.333 2.667v5.333"></path>
<path stroke-linejoin="round" stroke-linecap="round" stroke-miterlimit="4" stroke-width="2.4" d="M10.667 2.667v5.333"></path>
<path stroke-linejoin="round" stroke-linecap="round" stroke-miterlimit="4" stroke-width="2.4" d="M4 13.333h24"></path>
</symbol>
<symbol id="camper" viewBox="0 0 32 32">
<path d="M1.826 6.060h8.686c0.073 0 0.142-0.028 0.194-0.079l0.834-0.814c0.243-0.237 0.565-0.367 0.908-0.367h13.172c0.613 0 1.183 0.297 1.523 0.795l1.579 2.31c0.224 0.328 0.244 0.747 0.054 1.095s-0.56 0.563-0.964 0.563h-6.789v0.669h3.477c0.922 0 1.751 0.534 2.112 1.361l2.036 4.655 1.783 0.696c0.952 0.372 1.568 1.258 1.568 2.259v4.311c0 0.643-0.536 1.166-1.195 1.166h-2.075c-0.241 1.427-1.515 2.52-3.045 2.52s-2.804-1.092-3.045-2.52h-11.342c-0.241 1.427-1.515 2.52-3.045 2.52s-2.804-1.092-3.045-2.52h-4.145c-0.586 0-1.063-0.465-1.063-1.037v-15.803c0-0.982 0.819-1.781 1.826-1.781zM25.685 26.216c1.146 0 2.078-0.909 2.078-2.027s-0.932-2.027-2.078-2.027c-1.146 0-2.078 0.909-2.078 2.027s0.932 2.027 2.078 2.027zM21.024 23.696h1.615c0.004-0.025 0.009-0.049 0.014-0.073 0.003-0.017 0.006-0.033 0.010-0.050 0.008-0.039 0.017-0.077 0.027-0.115 0.002-0.008 0.004-0.016 0.006-0.024 0.012-0.046 0.025-0.091 0.040-0.136 0.004-0.013 0.009-0.026 0.013-0.039 0.010-0.032 0.021-0.063 0.033-0.094 0.006-0.017 0.013-0.033 0.020-0.050 0.010-0.027 0.021-0.054 0.033-0.081 0.007-0.018 0.015-0.035 0.023-0.052 0.011-0.026 0.023-0.050 0.035-0.076 0.009-0.018 0.017-0.035 0.027-0.053 0.012-0.024 0.025-0.048 0.038-0.072 0.009-0.017 0.019-0.035 0.029-0.052 0.013-0.024 0.027-0.047 0.042-0.070 0.010-0.017 0.020-0.033 0.030-0.050 0.015-0.024 0.031-0.047 0.046-0.070 0.010-0.015 0.021-0.031 0.031-0.046 0.017-0.025 0.036-0.049 0.054-0.074 0.009-0.013 0.019-0.026 0.028-0.039 0.025-0.032 0.050-0.063 0.076-0.094 0.004-0.005 0.007-0.009 0.011-0.014 0.030-0.035 0.061-0.070 0.092-0.104 0.010-0.011 0.020-0.020 0.030-0.031 0.022-0.023 0.044-0.046 0.067-0.069 0.013-0.013 0.026-0.025 0.039-0.037 0.021-0.020 0.042-0.039 0.063-0.059 0.014-0.013 0.029-0.025 0.043-0.038 0.021-0.018 0.042-0.036 0.063-0.054l0.046-0.037c0.021-0.017 0.043-0.034 0.065-0.050 0.016-0.012 0.032-0.024 0.048-0.035 0.022-0.016 0.045-0.032 0.068-0.047 0.016-0.011 0.032-0.022 0.048-0.032 0.024-0.016 0.048-0.031 0.073-0.046 0.016-0.009 0.031-0.019 0.048-0.029 0.027-0.016 0.054-0.031 0.082-0.046 0.014-0.008 0.028-0.016 0.042-0.023 0.039-0.020 0.078-0.040 0.118-0.059 0.003-0.001 0.006-0.003 0.009-0.004 0.043-0.020 0.086-0.039 0.13-0.057 0.014-0.006 0.029-0.011 0.043-0.017 0.030-0.012 0.060-0.024 0.091-0.035 0.017-0.006 0.035-0.012 0.052-0.018 0.028-0.009 0.056-0.019 0.084-0.028 0.019-0.006 0.038-0.011 0.057-0.017 0.027-0.008 0.055-0.016 0.082-0.023 0.020-0.005 0.040-0.010 0.060-0.015 0.027-0.007 0.055-0.013 0.083-0.018 0.020-0.004 0.040-0.009 0.061-0.013 0.028-0.005 0.057-0.010 0.085-0.015 0.020-0.004 0.040-0.007 0.060-0.009 0.029-0.004 0.059-0.008 0.090-0.011 0.019-0.002 0.038-0.005 0.058-0.006 0.033-0.003 0.067-0.006 0.1-0.007 0.017-0.001 0.033-0.003 0.049-0.003 0.050-0.003 0.1-0.004 0.151-0.004s0.101 0.001 0.151 0.004c0.017 0 0.033 0.002 0.049 0.003 0.034 0.002 0.067 0.004 0.1 0.007 0.019 0.002 0.039 0.004 0.058 0.006 0.030 0.004 0.060 0.007 0.090 0.011 0.021 0.003 0.040 0.006 0.061 0.009 0.029 0.004 0.057 0.009 0.085 0.015 0.021 0.004 0.041 0.008 0.061 0.013 0.028 0.006 0.055 0.012 0.083 0.018 0.020 0.005 0.040 0.010 0.060 0.015 0.027 0.007 0.055 0.015 0.082 0.023 0.019 0.006 0.038 0.011 0.057 0.017 0.028 0.009 0.056 0.018 0.084 0.028 0.017 0.006 0.035 0.012 0.052 0.018 0.031 0.011 0.061 0.023 0.091 0.035 0.014 0.006 0.029 0.011 0.043 0.017 0.044 0.018 0.087 0.037 0.13 0.057 0.003 0.002 0.006 0.003 0.009 0.004 0.040 0.019 0.079 0.039 0.118 0.059 0.014 0.007 0.027 0.015 0.042 0.023 0.027 0.015 0.055 0.030 0.082 0.046 0.016 0.009 0.032 0.019 0.048 0.029 0.024 0.015 0.049 0.030 0.073 0.046 0.016 0.011 0.032 0.022 0.048 0.032 0.023 0.016 0.046 0.031 0.068 0.047 0.016 0.011 0.032 0.023 0.048 0.035 0.022 0.016 0.044 0.033 0.065 0.050l0.046 0.037c0.021 0.018 0.042 0.035 0.063 0.054 0.015 0.013 0.029 0.025 0.043 0.038 0.021 0.019 0.042 0.039 0.063 0.059 0.013 0.012 0.026 0.024 0.039 0.037 0.023 0.023 0.045 0.046 0.067 0.069 0.010 0.010 0.020 0.020 0.030 0.031 0.031 0.034 0.062 0.068 0.092 0.104 0.004 0.005 0.008 0.009 0.011 0.014 0.026 0.031 0.051 0.062 0.076 0.094 0.010 0.013 0.019 0.026 0.028 0.039 0.019 0.024 0.037 0.049 0.054 0.074 0.010 0.015 0.021 0.030 0.031 0.046 0.016 0.024 0.031 0.047 0.046 0.070 0.010 0.017 0.020 0.033 0.030 0.050 0.014 0.023 0.028 0.047 0.042 0.070 0.010 0.017 0.019 0.035 0.029 0.052 0.013 0.024 0.026 0.048 0.038 0.072 0.009 0.018 0.018 0.035 0.027 0.053 0.012 0.025 0.023 0.050 0.035 0.076 0.008 0.017 0.016 0.035 0.023 0.052 0.012 0.027 0.022 0.054 0.033 0.081 0.007 0.016 0.013 0.033 0.020 0.050 0.011 0.031 0.022 0.063 0.033 0.094 0.004 0.013 0.009 0.026 0.013 0.039 0.014 0.045 0.027 0.090 0.040 0.136 0.002 0.008 0.004 0.016 0.006 0.024 0.010 0.038 0.019 0.076 0.027 0.115 0.004 0.016 0.006 0.033 0.010 0.050 0.005 0.024 0.010 0.048 0.014 0.073h2.074c0.103 0 0.186-0.082 0.186-0.182v-2.062h-0.787v-0.984h0.787v-1.264c0-0.596-0.366-1.124-0.933-1.345l-1.888-0.737h-7.146v6.574zM21.024 16.138h6.48l-1.818-4.158c-0.203-0.464-0.668-0.763-1.185-0.763h-3.477v4.921zM8.252 26.216c1.146 0 2.078-0.909 2.078-2.027s-0.932-2.027-2.078-2.027c-0.036 0-0.071 0.001-0.107 0.003-0.955 0.047-1.742 0.727-1.929 1.616-0.007 0.033-0.013 0.067-0.019 0.1-0.011 0.067-0.017 0.135-0.021 0.204-0.002 0.035-0.003 0.069-0.003 0.104 0 1.118 0.932 2.027 2.078 2.027zM1.009 20.468h0.787v0.984h-0.787v2.192c0 0.029 0.024 0.052 0.054 0.052h4.144c0.004-0.024 0.009-0.048 0.014-0.072 0.003-0.017 0.006-0.034 0.010-0.051 0.008-0.038 0.017-0.075 0.027-0.112 0.002-0.009 0.004-0.018 0.006-0.026 0.012-0.046 0.025-0.090 0.040-0.135 0.004-0.014 0.009-0.028 0.014-0.041 0.011-0.031 0.021-0.062 0.032-0.093 0.006-0.017 0.013-0.034 0.020-0.051 0.011-0.027 0.021-0.054 0.032-0.080 0.008-0.018 0.016-0.036 0.024-0.054 0.011-0.025 0.023-0.050 0.035-0.074 0.008-0.018 0.018-0.036 0.027-0.054 0.012-0.024 0.025-0.048 0.038-0.072 0.010-0.017 0.019-0.035 0.029-0.052 0.014-0.024 0.027-0.047 0.042-0.070 0.010-0.017 0.020-0.033 0.031-0.050 0.015-0.024 0.030-0.047 0.046-0.070 0.010-0.016 0.021-0.032 0.031-0.046 0.017-0.025 0.035-0.049 0.053-0.073 0.010-0.013 0.019-0.027 0.029-0.040 0.024-0.031 0.049-0.062 0.074-0.092 0.004-0.006 0.008-0.011 0.013-0.016 0.030-0.035 0.061-0.070 0.092-0.104 0.010-0.011 0.020-0.021 0.030-0.032 0.022-0.023 0.044-0.046 0.067-0.068 0.013-0.013 0.026-0.025 0.040-0.037 0.021-0.020 0.041-0.039 0.063-0.058 0.014-0.013 0.029-0.025 0.044-0.038 0.021-0.018 0.042-0.035 0.063-0.053 0.015-0.013 0.031-0.025 0.046-0.037 0.021-0.017 0.043-0.033 0.065-0.050 0.016-0.012 0.032-0.024 0.048-0.035 0.022-0.016 0.045-0.032 0.067-0.047 0.017-0.011 0.033-0.022 0.049-0.033 0.024-0.016 0.048-0.031 0.072-0.045 0.016-0.010 0.032-0.020 0.048-0.029 0.027-0.016 0.054-0.031 0.081-0.046 0.014-0.008 0.028-0.016 0.042-0.023 0.038-0.020 0.077-0.040 0.117-0.058 0.003-0.002 0.006-0.004 0.010-0.005 0.043-0.020 0.086-0.039 0.13-0.057 0.014-0.006 0.029-0.011 0.043-0.017 0.030-0.012 0.060-0.024 0.091-0.035 0.017-0.006 0.035-0.012 0.053-0.018 0.027-0.009 0.055-0.019 0.084-0.028 0.019-0.006 0.038-0.011 0.057-0.017 0.027-0.008 0.055-0.016 0.082-0.023 0.020-0.005 0.040-0.010 0.060-0.015 0.027-0.007 0.055-0.013 0.083-0.018 0.020-0.004 0.040-0.009 0.061-0.013 0.028-0.005 0.056-0.010 0.085-0.015 0.020-0.004 0.040-0.007 0.061-0.009 0.029-0.004 0.059-0.008 0.090-0.011 0.019-0.002 0.038-0.005 0.058-0.006 0.033-0.003 0.067-0.006 0.1-0.007 0.016-0.001 0.033-0.003 0.049-0.003 0.050-0.003 0.1-0.004 0.151-0.004s0.101 0.001 0.151 0.004c0.017 0 0.033 0.002 0.049 0.003 0.033 0.002 0.067 0.004 0.1 0.007 0.019 0.002 0.039 0.004 0.058 0.006 0.030 0.004 0.060 0.007 0.090 0.011 0.021 0.003 0.040 0.006 0.060 0.009 0.029 0.004 0.057 0.009 0.085 0.015 0.021 0.004 0.041 0.008 0.061 0.013 0.028 0.006 0.055 0.012 0.083 0.018 0.020 0.005 0.040 0.010 0.060 0.015 0.027 0.007 0.055 0.015 0.082 0.023 0.019 0.006 0.038 0.011 0.057 0.017 0.028 0.009 0.056 0.018 0.084 0.028 0.018 0.006 0.036 0.012 0.053 0.018 0.031 0.011 0.061 0.023 0.091 0.035 0.014 0.006 0.029 0.011 0.043 0.017 0.044 0.018 0.087 0.037 0.13 0.057 0.004 0.002 0.007 0.003 0.010 0.005 0.040 0.019 0.078 0.038 0.117 0.058 0.014 0.007 0.028 0.015 0.042 0.023 0.027 0.015 0.054 0.030 0.081 0.046 0.016 0.009 0.032 0.019 0.048 0.029 0.024 0.015 0.048 0.030 0.072 0.045 0.016 0.011 0.032 0.022 0.049 0.033 0.023 0.015 0.045 0.031 0.067 0.047 0.016 0.011 0.032 0.023 0.048 0.035 0.022 0.016 0.044 0.033 0.065 0.050 0.016 0.012 0.031 0.025 0.046 0.037 0.021 0.017 0.042 0.035 0.063 0.053 0.015 0.013 0.029 0.025 0.044 0.038 0.021 0.019 0.042 0.039 0.063 0.059 0.013 0.012 0.026 0.024 0.039 0.037 0.023 0.022 0.045 0.046 0.067 0.069 0.010 0.010 0.020 0.020 0.030 0.031 0.031 0.034 0.062 0.068 0.092 0.104 0.004 0.005 0.008 0.010 0.012 0.015 0.025 0.031 0.051 0.062 0.075 0.094 0.010 0.013 0.019 0.026 0.029 0.039 0.018 0.024 0.036 0.049 0.054 0.074 0.010 0.015 0.021 0.031 0.031 0.046 0.016 0.023 0.031 0.046 0.046 0.070 0.010 0.017 0.021 0.033 0.031 0.050 0.014 0.023 0.028 0.047 0.042 0.070 0.010 0.017 0.019 0.035 0.029 0.052 0.013 0.024 0.026 0.048 0.038 0.072 0.009 0.018 0.017 0.035 0.026 0.053 0.012 0.025 0.023 0.050 0.035 0.076 0.008 0.017 0.016 0.035 0.023 0.052 0.012 0.027 0.022 0.054 0.033 0.081 0.006 0.016 0.013 0.033 0.019 0.050 0.012 0.031 0.022 0.063 0.033 0.095 0.004 0.013 0.009 0.026 0.013 0.039 0.014 0.045 0.027 0.091 0.040 0.136 0.002 0.007 0.003 0.015 0.005 0.022 0.010 0.039 0.019 0.078 0.028 0.117 0.004 0.016 0.006 0.032 0.009 0.048 0.005 0.025 0.010 0.049 0.015 0.074h8.717v-14.625c0-0.272 0.226-0.492 0.504-0.492h7.293c0.012 0 0.051 0 0.075-0.044s0.003-0.074-0.004-0.084l-1.578-2.31c-0.153-0.224-0.408-0.357-0.684-0.357h-13.172c-0.073 0-0.142 0.028-0.195 0.079l-0.834 0.814c-0.242 0.237-0.565 0.367-0.908 0.367h-8.686c-0.45 0-0.817 0.357-0.817 0.797v12.627z"></path>
<path d="M14.081 9.838h3.191c0.644 0 1.169 0.511 1.169 1.14v10.532c0 0.272-0.226 0.492-0.504 0.492h-4.52c-0.278 0-0.504-0.22-0.504-0.492v-10.532c-0-0.629 0.524-1.14 1.169-1.14zM13.921 21.019h3.511v-5.787h-3.511v5.787zM13.921 14.248h3.511v-3.269c0-0.086-0.072-0.156-0.16-0.156h-3.191c-0.088 0-0.16 0.070-0.16 0.156v3.269h0zM3.875 9.838h6.17c0.713 0 1.293 0.566 1.293 1.262v2.87c0 0.696-0.58 1.262-1.293 1.262h-6.17c-0.713 0-1.293-0.566-1.293-1.262v-2.87c0-0.696 0.581-1.262 1.294-1.262zM3.59 13.97c0 0.153 0.127 0.278 0.284 0.278h6.17c0.157 0 0.284-0.124 0.284-0.278v-2.87c0-0.153-0.128-0.278-0.284-0.278h-6.17c-0.157 0-0.284 0.124-0.284 0.278v2.87h0z"></path>
</symbol>
<symbol id="bed" viewBox="0 0 32 32">
<path stroke-linejoin="round" stroke-linecap="round" stroke-miterlimit="4" stroke-width="2.24" d="M3 26v-7c0.003-1.060 0.426-2.076 1.175-2.825s1.765-1.172 2.825-1.175h18c1.060 0.003 2.076 0.426 2.825 1.175s1.172 1.765 1.175 2.825v7M24 15h-18v-6.5c0.002-0.662 0.266-1.297 0.734-1.766s1.103-0.732 1.766-0.734h15c0.662 0.002 1.297 0.266 1.766 0.734s0.732 1.103 0.734 1.766v6.5h-2z"></path>
<path stroke-linejoin="round" stroke-linecap="round" stroke-miterlimit="4" stroke-width="2.24" d="M3 26v-0.5c0.001-0.397 0.16-0.778 0.441-1.059s0.662-0.44 1.059-0.441h23c0.397 0.001 0.778 0.16 1.059 0.441s0.44 0.662 0.441 1.059v0.5M7 15v-1c0.002-0.53 0.213-1.038 0.587-1.413s0.883-0.586 1.413-0.587h5c0.53 0.002 1.038 0.213 1.413 0.587s0.586 0.883 0.587 1.413M16 14v1M16 14c0.001-0.53 0.213-1.038 0.587-1.413s0.883-0.586 1.413-0.587h5c0.53 0.002 1.038 0.213 1.413 0.587s0.586 0.883 0.587 1.413v1"></path>
</symbol>
<symbol id="automatic" viewBox="0 0 32 32">
<path stroke-linejoin="round" stroke-linecap="round" stroke-miterlimit="4" stroke-width="2.4" d="M22.667 14.667h2c0.53 0 1.039-0.211 1.414-0.586s0.586-0.884 0.586-1.414-0.211-1.039-0.586-1.414c-0.375-0.375-0.884-0.586-1.414-0.586h-2v6.667M22.667 22.667v5.333h1.333c0.707 0 1.386-0.281 1.886-0.781s0.781-1.178 0.781-1.886c0-0.707-0.281-1.385-0.781-1.886s-1.178-0.781-1.886-0.781h-1.333zM4 6.667c0 0.707 0.281 1.386 0.781 1.886s1.178 0.781 1.886 0.781c0.707 0 1.386-0.281 1.886-0.781s0.781-1.178 0.781-1.886c0-0.707-0.281-1.386-0.781-1.886s-1.178-0.781-1.886-0.781c-0.707 0-1.386 0.281-1.886 0.781s-0.781 1.178-0.781 1.886z"></path>
<path stroke-linejoin="round" stroke-linecap="round" stroke-miterlimit="4" stroke-width="2.4" d="M6.667 9.333v4c0 0.354 0.14 0.693 0.391 0.943s0.589 0.391 0.943 0.391h4M12 14.667v9.333c0 0.354 0.14 0.693 0.391 0.943s0.589 0.39 0.943 0.39h4M12 14.667h5.333"></path>
</symbol>
<symbol id="heart" viewBox="0 0 32 32">
<path stroke-linejoin="round" stroke-linecap="round" stroke-miterlimit="4" stroke-width="3.0667" d="M27.787 6.147c-0.681-0.681-1.49-1.222-2.379-1.591s-1.844-0.559-2.807-0.559-1.917 0.19-2.807 0.559c-0.89 0.369-1.699 0.909-2.38 1.591l-1.413 1.413-1.413-1.413c-1.376-1.376-3.241-2.148-5.187-2.148s-3.811 0.773-5.187 2.148c-1.376 1.376-2.148 3.241-2.148 5.187s0.773 3.811 2.148 5.187l11.787 11.787 11.787-11.787c0.681-0.681 1.222-1.49 1.591-2.38s0.559-1.844 0.559-2.807-0.19-1.917-0.559-2.807c-0.369-0.89-0.909-1.699-1.591-2.38z"></path>
</symbol>
<symbol id="kitchen" viewBox="0 0 32 32">
<path stroke-linejoin="round" stroke-linecap="round" stroke-miterlimit="4" stroke-width="2.4" d="M25.333 20v-16c-6.421 6.125-6.697 11.092-6.667 16h6.667zM25.333 20v8h-1.333v-4M10.667 5.333v22.667M6.667 5.333v4c0 1.061 0.421 2.078 1.172 2.828s1.768 1.172 2.828 1.172c1.061 0 2.078-0.421 2.828-1.172s1.172-1.768 1.172-2.828v-4"></path>
</symbol>
<symbol id="location" viewBox="0 0 32 32">
<path stroke-linejoin="round" stroke-linecap="round" stroke-miterlimit="4" stroke-width="2.4" d="M28 13.333c0 9.333-12 17.333-12 17.333s-12-8-12-17.333c0-3.183 1.264-6.235 3.515-8.485s5.303-3.515 8.485-3.515c3.183 0 6.235 1.264 8.485 3.515s3.515 5.303 3.515 8.485z"></path>
<path stroke-linejoin="round" stroke-linecap="round" stroke-miterlimit="4" stroke-width="2.4" d="M16 17.333c2.209 0 4-1.791 4-4s-1.791-4-4-4c-2.209 0-4 1.791-4 4s1.791 4 4 4z"></path>
</symbol>
<symbol id="shower" viewBox="0 0 32 32">
<path stroke-linejoin="round" stroke-linecap="round" stroke-miterlimit="4" stroke-width="2" d="M5.333 5.333l3.333 3.333M18 8.667c-1.242-1.217-2.914-1.895-4.653-1.886s-3.404 0.703-4.634 1.933-1.924 2.895-1.933 4.634c-0.009 1.739 0.669 3.411 1.886 4.653M20 6.667l-13.333 13.333M18.667 22.667v0.013M13.333 21.333v0.013M17.333 17.333v0.013M21.333 13.333v0.013M14.667 26.667v0.013M22.667 18.667v0.013M26.667 14.667v0.013"></path>
</symbol>
    <symbol id="zerorating" viewBox="0 0 34 32">
        <path stroke-linejoin="miter" stroke-linecap="butt" stroke-miterlimit="4" stroke-width="2.56" d="M13.227 10.020l3.84-7.277 3.84 7.277c0.34 0.644 0.959 1.093 1.675 1.217l8.108 1.403-5.735 5.9c-0.507 0.522-0.744 1.249-0.64 1.97l1.171 8.144-7.384-3.631c-0.653-0.321-1.418-0.321-2.071 0l-7.384 3.631 1.171-8.144c0.104-0.72-0.133-1.448-0.64-1.97l-5.735-5.9 8.108-1.403c0.717-0.124 1.336-0.574 1.675-1.217z"></path>
    </symbol>
    <symbol id="gohome" viewBox="0 0 32 32">
        <path d="M32 19l-6-6v-9h-4v5l-6-6-16 16v1h4v10h10v-6h4v6h10v-10h4z"></path>
    </symbol>
    <symbol id="freezer" viewBox="0 0 32 32">
        <path stroke-linejoin="round" stroke-linecap="round" stroke-miterlimit="4" stroke-width="2.0800" d="M23.4 3h-14.793c-1.105 0-2 0.895-2 2v20.387c0 1.104 0.895 2 2 2h14.793c1.104 0 2-0.896 2-2v-20.387c0-1.105-0.896-2-2-2z"></path>
        <path stroke-linejoin="round" stroke-linecap="round" stroke-miterlimit="4" stroke-width="2.0800" d="M6.607 13.127h18.787M10.313 10.567v-4.040M10.313 19.44v-4.040M8.427 27.387v0.7c0 0.241 0.095 0.472 0.265 0.643s0.4 0.268 0.642 0.27h1.647c0.242 0 0.475-0.096 0.646-0.268s0.268-0.404 0.268-0.646v-0.7M20.1 27.387v0.7c0 0.242 0.096 0.474 0.268 0.646s0.404 0.268 0.646 0.268h1.653c0.242 0 0.474-0.096 0.646-0.268s0.268-0.404 0.268-0.646v-0.7"></path>
    </symbol>
    <symbol id="water" viewBox="0 0 25 32">
        <path stroke-linejoin="miter" stroke-linecap="butt" stroke-miterlimit="10" stroke-width="2.6667" d="M22.444 20.444c0 6.137-3.863 10-10 10s-10-3.863-10-10c0-6.585 7.169-15.476 9.367-18.047 0.078-0.091 0.175-0.165 0.285-0.215s0.228-0.076 0.348-0.076c0.12 0 0.239 0.026 0.348 0.076s0.206 0.124 0.285 0.215c2.198 2.572 9.367 11.462 9.367 18.047z"></path>
    </symbol>
    <symbol id="fire" viewBox="0 0 26 32">
        <path d="M23.849 14.578c-0.433-0.533-0.96-0.996-1.449-1.458-1.261-1.067-2.691-1.831-3.896-2.951-2.804-2.596-3.425-6.88-1.637-10.169-1.788 0.409-3.35 1.333-4.686 2.347-4.874 3.698-6.794 10.223-4.498 15.823 0.075 0.178 0.151 0.356 0.151 0.587 0 0.391-0.282 0.747-0.659 0.889-0.433 0.178-0.885 0.071-1.242-0.213-0.107-0.084-0.197-0.187-0.263-0.302-2.127-2.542-2.465-6.187-1.035-9.102-3.143 2.418-4.856 6.507-4.611 10.365 0.113 0.889 0.226 1.778 0.546 2.667 0.263 1.067 0.772 2.133 1.336 3.076 2.033 3.076 5.552 5.28 9.335 5.725 4.027 0.48 8.337-0.213 11.424-2.844 3.444-2.951 4.648-7.68 2.879-11.734l-0.245-0.462c-0.395-0.818-1.449-2.24-1.449-2.24zM17.902 25.778c-0.527 0.427-1.393 0.889-2.070 1.067-2.108 0.711-4.216-0.284-5.458-1.458 2.24-0.498 3.576-2.062 3.971-3.645 0.32-1.422-0.282-2.596-0.527-3.965-0.226-1.316-0.188-2.436 0.32-3.662 0.358 0.676 0.734 1.351 1.186 1.885 1.449 1.778 3.726 2.56 4.216 4.978 0.075 0.249 0.113 0.498 0.113 0.764 0.056 1.458-0.621 3.058-1.75 4.036z"></path>
    </symbol>
<symbol id="route" viewBox="0 0 32 32">
<path d="M6.667 4c-1.473 0-2.667 1.194-2.667 2.667s1.194 2.667 2.667 2.667c1.473 0 2.667-1.194 2.667-2.667s-1.194-2.667-2.667-2.667zM1.333 6.667c0-2.946 2.388-5.333 5.333-5.333s5.333 2.388 5.333 5.333c0 2.946-2.388 5.333-5.333 5.333s-5.333-2.388-5.333-5.333z"></path>
<path d="M25.333 22.667c-1.473 0-2.667 1.194-2.667 2.667s1.194 2.667 2.667 2.667c1.473 0 2.667-1.194 2.667-2.667s-1.194-2.667-2.667-2.667zM20 25.333c0-2.945 2.388-5.333 5.333-5.333s5.333 2.388 5.333 5.333c0 2.946-2.388 5.333-5.333 5.333s-5.333-2.388-5.333-5.333z"></path>
<path d="M13.333 6.667c0-0.736 0.597-1.333 1.333-1.333h8.4c4.13 0 5.62 5.404 1.987 7.429l-15.473 8.804c-1.16 0.644-0.782 2.434 0.686 2.434h7.067c0.736 0 1.333 0.597 1.333 1.333s-0.597 1.333-1.333 1.333h-7.067c-4.13 0-5.619-5.404-1.987-7.429l15.473-8.804c1.16-0.644 0.782-2.434-0.686-2.434h-8.4c-0.736 0-1.333-0.597-1.333-1.333z"></path>
</symbol>
<symbol id="users" viewBox="0 0 32 32">
<path d="M9.067 24.133h-4.4c-0.267 0-0.4-0.133-0.533-0.267s-0.267-0.4-0.133-0.667c0.8-2.267 2.8-3.6 5.067-3.6 2.8 0 5.067-2.4 5.067-5.2s-2.267-5.467-5.067-5.467c-2.8 0-5.067 2.4-5.067 5.333 0 1.333 0.533 2.667 1.333 3.6-1.733 0.933-3.067 2.4-3.867 4.4-0.267 0.933-0.133 2.133 0.533 3.067s1.6 1.467 2.667 1.467h4.4c0.8 0 1.333-0.533 1.333-1.333s-0.533-1.333-1.333-1.333zM6.667 14.267c0-1.467 1.067-2.533 2.4-2.533s2.4 1.2 2.4 2.533c0 1.467-1.067 2.533-2.4 2.533s-2.4-1.2-2.4-2.533z"></path>
<path d="M30.533 21.467c-0.933-2.533-2.8-4.4-4.933-5.467 1.2-1.067 1.867-2.667 1.867-4.533 0-3.467-2.667-6.267-5.867-6.267s-5.867 2.8-5.867 6.267c0 1.733 0.667 3.333 1.867 4.533-2.133 1.067-4 2.933-4.933 5.467-0.667 1.2-0.4 2.533 0.267 3.6s1.867 1.6 3.067 1.6h11.067c1.2 0 2.4-0.667 3.067-1.6 0.8-1.067 0.933-2.4 0.4-3.6zM18.267 11.6c0-2 1.467-3.6 3.2-3.6s3.2 1.6 3.2 3.6-1.467 3.6-3.2 3.6c-1.733 0-3.2-1.733-3.2-3.6zM27.867 23.6c-0.133 0.133-0.4 0.533-0.8 0.533h-11.067c-0.533 0-0.8-0.4-0.8-0.533-0.133-0.133-0.4-0.667-0.133-1.2 1.067-2.8 3.733-4.667 6.533-4.667s5.467 1.867 6.533 4.667c0.133 0.533-0.133 1.067-0.267 1.2z"></path>
</symbol>
    <symbol id="wind" viewBox="0 0 40 32">
        <path d="M19.38 0c-1.876 0-3.695 0.641-5.146 1.812s-2.446 2.801-2.814 4.613l-0.145 0.719c-0.039 0.161-0.044 0.328-0.016 0.49s0.090 0.318 0.18 0.457c0.091 0.139 0.209 0.259 0.347 0.352s0.295 0.158 0.459 0.19c0.165 0.032 0.334 0.032 0.498-0.002s0.32-0.099 0.458-0.193c0.138-0.094 0.255-0.214 0.345-0.354s0.15-0.296 0.177-0.459l0.148-0.716c0.277-1.343 1.051-2.537 2.171-3.351s2.507-1.189 3.892-1.054c1.385 0.135 2.67 0.772 3.606 1.787s1.456 2.335 1.459 3.706c0 1.469-0.593 2.878-1.647 3.917s-2.486 1.623-3.978 1.624h-18.125c-0.332 0-0.649 0.13-0.884 0.36s-0.366 0.544-0.366 0.87c0 0.326 0.132 0.639 0.366 0.87s0.552 0.36 0.884 0.36h18.125c2.12-0.051 4.136-0.916 5.617-2.41s2.311-3.499 2.311-5.587-0.828-4.094-2.308-5.589c-1.48-1.495-3.496-2.361-5.616-2.414zM33.75 11.077c-1.658 0-3.247 0.648-4.419 1.802s-1.831 2.719-1.831 4.351c0 0.326 0.132 0.639 0.366 0.87s0.552 0.36 0.884 0.36 0.649-0.13 0.884-0.36c0.235-0.231 0.366-0.544 0.366-0.87 0-0.73 0.22-1.444 0.632-2.051s0.998-1.080 1.683-1.36c0.685-0.279 1.439-0.353 2.167-0.21s1.396 0.494 1.92 1.011c0.524 0.516 0.882 1.174 1.026 1.891s0.070 1.459-0.213 2.133-0.765 1.251-1.381 1.657c-0.617 0.406-1.342 0.622-2.083 0.622h-32.5c-0.332 0-0.649 0.13-0.884 0.361s-0.366 0.544-0.366 0.87c0 0.326 0.132 0.64 0.366 0.87s0.552 0.36 0.884 0.36h24.375c0.829 0.002 1.623 0.327 2.208 0.906s0.913 1.361 0.911 2.177c-0.002 0.816-0.333 1.598-0.92 2.174s-1.383 0.898-2.212 0.897c-0.746 0.001-1.469-0.259-2.040-0.733s-0.952-1.132-1.078-1.856l-0.012-0.074c-0.023-0.163-0.078-0.32-0.163-0.462s-0.199-0.265-0.333-0.363-0.288-0.168-0.451-0.206c-0.163-0.039-0.332-0.044-0.497-0.017s-0.323 0.086-0.464 0.175c-0.141 0.088-0.263 0.204-0.358 0.339s-0.162 0.288-0.196 0.45c-0.034 0.161-0.035 0.328-0.003 0.489l0.013 0.074c0.222 1.299 0.905 2.479 1.927 3.33s2.317 1.317 3.655 1.317c1.493 0.001 2.926-0.582 3.983-1.621s1.652-2.447 1.655-3.918c0-1.14-0.35-2.198-0.947-3.077h3.447c1.658 0 3.247-0.648 4.419-1.802s1.831-2.719 1.831-4.351-0.658-3.197-1.831-4.351c-1.172-1.154-2.762-1.802-4.419-1.802z"></path>
    </symbol>
<symbol id="tv" viewBox="0 0 32 32">
<path stroke-linejoin="round" stroke-linecap="round" stroke-miterlimit="4" stroke-width="1.8" d="M24 26h-16c-2.216 0-4-1.784-4-4v-10c0-2.216 1.784-4 4-4h16c2.216 0 4 1.784 4 4v10c0 2.216-1.784 4-4 4z"></path>
<path stroke-linejoin="round" stroke-linecap="round" stroke-miterlimit="4" stroke-width="1.8" d="M12 30h8"></path>
<path stroke-linejoin="round" stroke-linecap="round" stroke-miterlimit="4" stroke-width="1.8" d="M16 8l6-6"></path>
<path stroke-linejoin="round" stroke-linecap="round" stroke-miterlimit="4" stroke-width="1.8" d="M16 8l-6-6"></path>
</symbol>
<symbol id="gas" viewBox="0 0 32 32">
<path d="M26.36 9.64l0.013-0.013-4.96-4.96-1.413 1.413 2.813 2.813c-1.253 0.48-2.147 1.68-2.147 3.107 0 0.438 0.086 0.871 0.254 1.276s0.413 0.772 0.723 1.081c0.625 0.625 1.473 0.976 2.357 0.976 0.48 0 0.92-0.107 1.333-0.28v9.613c0 0.354-0.14 0.693-0.391 0.943s-0.589 0.391-0.943 0.391c-0.354 0-0.693-0.14-0.943-0.391s-0.391-0.589-0.391-0.943v-6c0-0.707-0.281-1.386-0.781-1.886s-1.178-0.781-1.886-0.781h-1.333v-9.333c0-0.707-0.281-1.386-0.781-1.886s-1.178-0.781-1.886-0.781h-8c-0.707 0-1.386 0.281-1.886 0.781s-0.781 1.178-0.781 1.886v21.333h13.333v-10h2v6.667c0 0.884 0.351 1.732 0.976 2.357s1.473 0.976 2.357 0.976c0.438 0 0.871-0.086 1.276-0.254s0.772-0.413 1.081-0.723c0.309-0.309 0.555-0.677 0.723-1.081s0.254-0.838 0.254-1.276v-12.667c0-0.92-0.373-1.76-0.973-2.36zM16 18v7.333h-8v-9.333h8v2zM16 13.333h-8v-6.667h8v6.667zM24 13.333c-0.354 0-0.693-0.14-0.943-0.39s-0.391-0.589-0.391-0.943 0.14-0.693 0.391-0.943c0.25-0.25 0.589-0.39 0.943-0.39s0.693 0.14 0.943 0.39c0.25 0.25 0.391 0.589 0.391 0.943s-0.14 0.693-0.391 0.943c-0.25 0.25-0.589 0.39-0.943 0.39z"></path>
</symbol>
</defs>
</svg>
